<svg xmlns="http://www.w3.org/2000/svg" viewBox="0 0 960 540" width="960" height="540">
  <defs>
    <linearGradient id="sky-loc_echo_cave" x1="0%" y1="0%" x2="0%" y2="100%">
      <stop offset="0%" stop-color="#c2bcb3"/>
      <stop offset="100%" stop-color="#f6f1e8"/>
    </linearGradient>
    <linearGradient id="ground-loc_echo_cave" x1="0%" y1="0%" x2="0%" y2="100%">
      <stop offset="0%" stop-color="#f6f1e8"/>
      <stop offset="100%" stop-color="#5c544b"/>
    </linearGradient>
  </defs>

  <!-- Sky Background -->
  <rect x="0" y="0" width="960" height="300" fill="url(#sky-loc_echo_cave)"/>

  <!-- Distant Mountains/Hills & Horizon -->
  <path d="M0,260 Q240,190 480,240 T960,220 L960,320 L0,320 Z" fill="#b5c0b8" opacity="0.6"/>
  <path d="M0,290 Q300,240 600,280 T960,270 L960,540 L0,540 Z" fill="url(#ground-loc_echo_cave)"/>

  <!-- Foreground Landscape & Paths -->
  <path d="M120,540 Q380,420 540,330 T680,290" fill="none" stroke="#e0d3be" stroke-width="32" stroke-linecap="round"/>
  <path d="M120,540 Q380,420 540,330 T680,290" fill="none" stroke="#c4b297" stroke-width="24" stroke-dasharray="16 8"/>

  <!-- Main Focal Architectural & Environmental Scene Group -->
  <g id="focal-group" transform="translate(320, 160)">
    <!-- Central Main Structure -->
    <rect x="40" y="60" width="240" height="180" fill="#f6f1e8" stroke="#2d261e" stroke-width="6" rx="4"/>
    <polygon points="10,60 160,-20 310,60" fill="#5a5043" stroke="#2d261e" stroke-width="6"/>
    
    <!-- Doors & Windows with Warm Light -->
    <rect x="130" y="140" width="60" height="100" fill="#2d261e" rx="2"/>
    <rect x="140" y="150" width="40" height="90" fill="#c68a35" opacity="0.85"/>
    <rect x="65" y="90" width="45" height="45" fill="#fffdf8" stroke="#2d261e" stroke-width="4"/>
    <rect x="210" y="90" width="45" height="45" fill="#fffdf8" stroke="#2d261e" stroke-width="4"/>

    <!-- Focal Details -->
    <circle cx="160" cy="20" r="18" fill="#c68a35" stroke="#2d261e" stroke-width="4"/>
  </g>

  <!-- Left Focal Point / Secondary Feature -->
  <g transform="translate(100, 260)">
    <circle cx="50" cy="50" r="45" fill="#50755a" opacity="0.8"/>
    <rect x="44" y="80" width="12" height="70" fill="#5a5043"/>
    <path d="M10,120 Q60,100 110,120" fill="none" stroke="#5a5043" stroke-width="6"/>
    <!-- Bench / Marker -->
    <rect x="20" y="130" width="60" height="16" fill="#c68a35" stroke="#2d261e" stroke-width="3"/>
  </g>

  <!-- Right Focal Point / Environment Details -->
  <g transform="translate(720, 240)">
    <!-- Lantern Post -->
    <line x1="60" y1="200" x2="60" y2="60" stroke="#2d261e" stroke-width="6"/>
    <polygon points="45,60 75,60 80,30 40,30" fill="#c68a35" stroke="#2d261e" stroke-width="4"/>
    <circle cx="60" cy="45" r="12" fill="#fffdf8" stroke="#c68a35" stroke-width="3"/>
    <!-- Signpost -->
    <rect x="60" y="90" width="80" height="24" fill="#ede4d3" stroke="#2d261e" stroke-width="3"/>
    <text x="70" y="106" font-family="sans-serif" font-size="10" fill="#2d261e" font-weight="bold">WEGWEISER</text>
  </g>

  <!-- Draft Concept Banner Overlay -->
  <rect x="20" y="20" width="340" height="44" fill="#2d261e" opacity="0.8" rx="6"/>
  <text x="35" y="46" font-family="'Georgia', serif" font-size="16" fill="#f6f1e8" font-weight="bold">Echohöhle der Muster</text>
  <rect x="20" y="476" width="380" height="44" fill="#f6f1e8" opacity="0.9" rx="4" stroke="#c68a35" stroke-width="2"/>
  <text x="35" y="502" font-family="sans-serif" font-size="12" fill="#5a5043">Konzept-Entwurf • Lebensgeschichte & Muster</text>
</svg>