<svg xmlns="http://www.w3.org/2000/svg" viewBox="0 0 512 512" width="512" height="512">
  <defs>
    <filter id="shadow" x="-10%" y="-10%" width="120%" height="120%">
      <feDropShadow dx="0" dy="6" stdDeviation="8" flood-color="#2d261e" flood-opacity="0.35"/>
    </filter>
    <linearGradient id="grad-loc_thought_windmill" x1="0%" y1="0%" x2="100%" y2="100%">
      <stop offset="0%" stop-color="#446473"/>
      <stop offset="100%" stop-color="#2d261e"/>
    </linearGradient>
  </defs>
  <g filter="url(#shadow)">
    <!-- Base Circular Shield Badge -->
    <circle cx="256" cy="256" r="220" fill="#f6f1e8" stroke="#446473" stroke-width="12"/>
    <circle cx="256" cy="256" r="200" fill="none" stroke="#ede4d3" stroke-width="4" stroke-dasharray="8 6"/>

    <!-- Distinct Silhouette Icons -->
    
        <!-- Windmill -->
        <polygon points="216,400 296,400 276,220 236,220" fill="#446473" stroke="#2d261e" stroke-width="8"/>
        <path d="M226,220 Q256,180 286,220" fill="#c68a35" stroke="#2d261e" stroke-width="6"/>
        <circle cx="256" cy="210" r="18" fill="#2d261e"/>
        <!-- Blades -->
        <line x1="256" y1="210" x2="150" y2="110" stroke="#2d261e" stroke-width="10" stroke-linecap="round"/>
        <line x1="256" y1="210" x2="362" y2="110" stroke="#2d261e" stroke-width="10" stroke-linecap="round"/>
        <line x1="256" y1="210" x2="362" y2="310" stroke="#2d261e" stroke-width="10" stroke-linecap="round"/>
        <line x1="256" y1="210" x2="150" y2="310" stroke="#2d261e" stroke-width="10" stroke-linecap="round"/>
        <rect x="130" y="90" width="40" height="40" fill="#f6f1e8" stroke="#446473" stroke-width="4"/>
        <rect x="342" y="90" width="40" height="40" fill="#f6f1e8" stroke="#446473" stroke-width="4"/>
        <rect x="342" y="290" width="40" height="40" fill="#f6f1e8" stroke="#446473" stroke-width="4"/>
        <rect x="130" y="290" width="40" height="40" fill="#f6f1e8" stroke="#446473" stroke-width="4"/>
      

    <!-- Outer Decorative Compass Nodule -->
    <circle cx="256" cy="46" r="10" fill="#446473"/>
    <circle cx="256" cy="466" r="10" fill="#446473"/>
    <circle cx="46" cy="256" r="10" fill="#446473"/>
    <circle cx="466" cy="256" r="10" fill="#446473"/>
  </g>
</svg>